# xmcd
#
# Track frame offsets:
#  150
#  20865
#  46743
#  73779
#  96294
#  122091
#  147007
#  171493
#  199526
#  218298
#
# Disc length: 3159 seconds
#
# Revision: 0
# Processed by: cddbd v1.5.1PL0 Copyright (c) Steve Scherf et al.
# Submitted via: Collectorz.com Music Collector 6.9
#
DISCID=8c0c550a
DTITLE=guy clark and verlon thompson - Bloomsbury Theatre, London - 21 Jan 2004 - Disc 2
DYEAR=2004
DGENRE=
TTITLE0=guy clark - Ramblin' Jack and Mahan
TTITLE1=guy clark - Desperados Waiting For A Train
TTITLE2=guy clark - Let Him Roll
TTITLE3=guy clark - Black Diamond Strings
TTITLE4=guy clark - Boats To Build
TTITLE5=guy clark - He Left The Road
TTITLE6=guy clark - I'm A Lucky Dog
TTITLE7=guy clark - Dublin Blues
TTITLE8=guy clark - Hangin' Your Life On The Wall
TTITLE9=guy clark - To Live Is To Fly
EXTD=
EXTT0=
EXTT1=
EXTT2=
EXTT3=
EXTT4=
EXTT5=
EXTT6=
EXTT7=
EXTT8=
EXTT9=
PLAYORDER=
